<svg xmlns="http://www.w3.org/2000/svg" viewBox="0 0 32 32" fill="none">
  <rect width="32" height="32" rx="7" fill="#8B5CF6"/>
  <path
    d="M8 22V10h2.8l2.4 5.4L15.6 10h2.8v12h-2v-8.2L14.2 18h-2l-2.2-4.2V22H8Z"
    fill="#FFFFFF"
  />
  <path
    d="M20 13.2c0-1.4 1.4-2.4 3.2-2.4 1.7 0 2.9.9 3.1 2.3h-2c-.1-.5-.5-.8-1.1-.8-.6 0-1 .3-1 .7 0 .4.3.6 1 .8l1 .2c1.6.4 2.3 1.1 2.3 2.4 0 1.6-1.3 2.7-3.3 2.7-1.9 0-3.2-1-3.4-2.5h2.1c.1.6.6.9 1.3.9.7 0 1.2-.3 1.2-.8 0-.4-.3-.6-1-.8l-.9-.2c-1.6-.4-2.3-1.1-2.3-2.5Z"
    fill="#FFFFFF"
  />
</svg>
